{
  "accessors": [
    {
      "bufferView": 2,
      "componentType": 5126,
      "count": 3694,
      "max": [
        3.0062270164489746,
        0.005824000108987093,
        1.6191869974136353
      ],
      "min": [
        -2.014307975769043,
        -3.16408109664917,
        -1.6191869974136353
      ],
      "type": "VEC3"
    },
    {
      "bufferView": 2,
      "byteOffset": 44328,
      "componentType": 5126,
      "count": 3694,
      "max": [
        0.9990519881248474,
        1.0,
        0.9988652467727661
      ],
      "min": [
        -0.9967556595802307,
        -0.9967920184135437,
        -0.9988652467727661
      ],
      "type": "VEC3"
    },
    {
      "bufferView": 1,
      "componentType": 5126,
      "count": 3694,
      "max": [
        0.9906920194625854,
        -0.005890000145882368
      ],
      "min": [
        0.0057680001482367516,
        -0.9924010038375854
      ],
      "type": "VEC2"
    },
    {
      "bufferView": 0,
      "componentType": 5125,
      "count": 3705,
      "type": "SCALAR"
    },
    {
      "bufferView": 2,
      "byteOffset": 88656,
      "componentType": 5126,
      "count": 12,
      "max": [
        2.575084924697876,
        -1.789957046508789,
        0.7145619988441467
      ],
      "min": [
        2.248784065246582,
        -2.3753669261932373,
        -0.7145619988441467
      ],
      "type": "VEC3"
    },
    {
      "bufferView": 2,
      "byteOffset": 88800,
      "componentType": 5126,
      "count": 12,
      "max": [
        0.7657091617584229,
        -0.2475080043077469,
        0.597428023815155
      ],
      "min": [
        0.7627710103988647,
        -0.26592305302619934,
        -0.597428023815155
      ],
      "type": "VEC3"
    },
    {
      "bufferView": 1,
      "byteOffset": 29552,
      "componentType": 5126,
      "count": 12,
      "max": [
        0.3554689884185791,
        -0.011718999594449997
      ],
      "min": [
        0.0859379991889,
        -0.171875
      ],
      "type": "VEC2"
    },
    {
      "bufferView": 0,
      "byteOffset": 14820,
      "componentType": 5125,
      "count": 12,
      "type": "SCALAR"
    }
  ],
  "asset": {
    "extras": {
      "author": "nguyenlouis32 (https://sketchfab.com/nguyenlouis32)",
      "license": "CC-BY-4.0 (http://creativecommons.org/licenses/by/4.0/)",
      "source": "https://sketchfab.com/3d-models/bidoof-40b4cca8a2a74260ad82d6fced0798fa",
      "title": "Bidoof"
    },
    "generator": "Sketchfab-13.42.0",
    "version": "2.0"
  },
  "bufferViews": [
    {
      "buffer": 0,
      "byteLength": 14868,
      "name": "floatBufferViews",
      "target": 34963
    },
    {
      "buffer": 0,
      "byteLength": 29648,
      "byteOffset": 14868,
      "byteStride": 8,
      "name": "floatBufferViews",
      "target": 34962
    },
    {
      "buffer": 0,
      "byteLength": 88944,
      "byteOffset": 44516,
      "byteStride": 12,
      "name": "floatBufferViews",
      "target": 34962
    }
  ],
  "buffers": [
    {
      "byteLength": 133460,
      "uri": "scene.bin"
    }
  ],
  "images": [
    {
      "uri": "textures/BippaDh_baseColor.png"
    },
    {
      "uri": "textures/BippaEyeDh_baseColor.png"
    }
  ],
  "materials": [
    {
      "doubleSided": true,
      "name": "BippaDh",
      "pbrMetallicRoughness": {
        "baseColorTexture": {
          "index": 0
        },
        "metallicFactor": 0.0,
        "roughnessFactor": 0.6
      }
    },
    {
      "doubleSided": true,
      "name": "BippaEyeDh",
      "pbrMetallicRoughness": {
        "baseColorTexture": {
          "index": 1
        },
        "metallicFactor": 0.0,
        "roughnessFactor": 0.6
      }
    }
  ],
  "meshes": [
    {
      "name": "Object_0",
      "primitives": [
        {
          "attributes": {
            "NORMAL": 1,
            "POSITION": 0,
            "TEXCOORD_0": 2
          },
          "indices": 3,
          "material": 0,
          "mode": 4
        }
      ]
    },
    {
      "name": "Object_1",
      "primitives": [
        {
          "attributes": {
            "NORMAL": 5,
            "POSITION": 4,
            "TEXCOORD_0": 6
          },
          "indices": 7,
          "material": 1,
          "mode": 4
        }
      ]
    }
  ],
  "nodes": [
    {
      "children": [
        1
      ],
      "matrix": [
        0.0,
        -4.440892098500626e-16,
        1.0,
        0.0,
        2.220446049250313e-16,
        -1.0,
        -4.440892098500626e-16,
        0.0,
        1.0,
        2.220446049250313e-16,
        4.930380657631324e-32,
        0.0,
        0.0,
        0.0,
        0.0,
        1.0
      ],
      "name": "Sketchfab_model"
    },
    {
      "children": [
        2,
        3
      ],
      "name": "Bippaout.obj.cleaner.materialmerger.gles"
    },
    {
      "mesh": 0,
      "name": "Object_2"
    },
    {
      "mesh": 1,
      "name": "Object_3"
    }
  ],
  "samplers": [
    {
      "magFilter": 9729,
      "minFilter": 9987,
      "wrapS": 10497,
      "wrapT": 10497
    }
  ],
  "scene": 0,
  "scenes": [
    {
      "name": "Sketchfab_Scene",
      "nodes": [
        0
      ]
    }
  ],
  "textures": [
    {
      "sampler": 0,
      "source": 0
    },
    {
      "sampler": 0,
      "source": 1
    }
  ]
}
