{
  "accessors": [
    {
      "bufferView": 2,
      "componentType": 5126,
      "count": 3662,
      "max": [
        3.3575899600982666,
        -0.005047000013291836,
        1.519590973854065
      ],
      "min": [
        -1.604159951210022,
        -4.143281936645508,
        -1.519590973854065
      ],
      "type": "VEC3"
    },
    {
      "bufferView": 2,
      "byteOffset": 43944,
      "componentType": 5126,
      "count": 3662,
      "max": [
        0.9999893307685852,
        1.0,
        0.9963455200195313
      ],
      "min": [
        -0.9880072474479675,
        -0.9922553300857544,
        -0.9963455200195313
      ],
      "type": "VEC3"
    },
    {
      "bufferView": 1,
      "componentType": 5126,
      "count": 3662,
      "max": [
        0.9871219992637634,
        -0.00824000034481287
      ],
      "min": [
        0.005828999914228916,
        -0.983489990234375
      ],
      "type": "VEC2"
    },
    {
      "bufferView": 0,
      "componentType": 5125,
      "count": 3732,
      "type": "SCALAR"
    },
    {
      "bufferView": 2,
      "byteOffset": 87888,
      "componentType": 5126,
      "count": 456,
      "max": [
        2.973750114440918,
        -2.146902084350586,
        1.190574049949646
      ],
      "min": [
        2.229063034057617,
        -3.1019320487976074,
        -1.190574049949646
      ],
      "type": "VEC3"
    },
    {
      "bufferView": 2,
      "byteOffset": 93360,
      "componentType": 5126,
      "count": 456,
      "max": [
        0.9320321083068848,
        0.45782506465911865,
        0.9951432347297668
      ],
      "min": [
        0.0978340208530426,
        -0.5717718005180359,
        -0.9951432347297668
      ],
      "type": "VEC3"
    },
    {
      "bufferView": 1,
      "byteOffset": 29296,
      "componentType": 5126,
      "count": 456,
      "max": [
        0.46875,
        -0.019531000405550003
      ],
      "min": [
        0.03125,
        -0.234375
      ],
      "type": "VEC2"
    },
    {
      "bufferView": 0,
      "byteOffset": 14928,
      "componentType": 5125,
      "count": 456,
      "type": "SCALAR"
    },
    {
      "bufferView": 2,
      "byteOffset": 98832,
      "componentType": 5126,
      "count": 24,
      "max": [
        2.6005890369415283,
        -0.9179919958114624,
        0.46779200434684753
      ],
      "min": [
        1.5752099752426147,
        -1.3938900232315063,
        -0.46779200434684753
      ],
      "type": "VEC3"
    },
    {
      "bufferView": 2,
      "byteOffset": 99120,
      "componentType": 5126,
      "count": 24,
      "max": [
        -0.2420729696750641,
        0.955012857913971,
        0.20661300420761108
      ],
      "min": [
        -0.4729439914226532,
        0.8565250039100647,
        -0.20661300420761108
      ],
      "type": "VEC3"
    },
    {
      "bufferView": 1,
      "byteOffset": 32944,
      "componentType": 5126,
      "count": 24,
      "max": [
        0.9773250222206116,
        -0.0070500001311302185
      ],
      "min": [
        0.021942000836133957,
        -0.24060100317001343
      ],
      "type": "VEC2"
    },
    {
      "bufferView": 0,
      "byteOffset": 16752,
      "componentType": 5125,
      "count": 24,
      "type": "SCALAR"
    }
  ],
  "asset": {
    "extras": {
      "author": "nguyenlouis32 (https://sketchfab.com/nguyenlouis32)",
      "license": "CC-BY-4.0 (http://creativecommons.org/licenses/by/4.0/)",
      "source": "https://sketchfab.com/3d-models/aron-9d1f0750919a4c218700802b6aaf3fe8",
      "title": "Aron"
    },
    "generator": "Sketchfab-13.35.0",
    "version": "2.0"
  },
  "bufferViews": [
    {
      "buffer": 0,
      "byteLength": 16848,
      "name": "floatBufferViews",
      "target": 34963
    },
    {
      "buffer": 0,
      "byteLength": 33136,
      "byteOffset": 16848,
      "byteStride": 8,
      "name": "floatBufferViews",
      "target": 34962
    },
    {
      "buffer": 0,
      "byteLength": 99408,
      "byteOffset": 49984,
      "byteStride": 12,
      "name": "floatBufferViews",
      "target": 34962
    }
  ],
  "buffers": [
    {
      "byteLength": 149392,
      "uri": "scene.bin"
    }
  ],
  "images": [
    {
      "uri": "textures/CokodoraDh_baseColor.png"
    },
    {
      "uri": "textures/CokodoraEyeDh_baseColor.png"
    },
    {
      "uri": "textures/CokodoraMouthDh_baseColor.png"
    }
  ],
  "materials": [
    {
      "doubleSided": true,
      "name": "CokodoraDh",
      "pbrMetallicRoughness": {
        "baseColorTexture": {
          "index": 0
        },
        "metallicFactor": 0.0,
        "roughnessFactor": 0.6
      }
    },
    {
      "doubleSided": true,
      "name": "CokodoraEyeDh",
      "pbrMetallicRoughness": {
        "baseColorTexture": {
          "index": 1
        },
        "metallicFactor": 0.0,
        "roughnessFactor": 0.6
      }
    },
    {
      "doubleSided": true,
      "name": "CokodoraMouthDh",
      "pbrMetallicRoughness": {
        "baseColorTexture": {
          "index": 2
        },
        "metallicFactor": 0.0,
        "roughnessFactor": 0.6
      }
    }
  ],
  "meshes": [
    {
      "name": "Object_0",
      "primitives": [
        {
          "attributes": {
            "NORMAL": 1,
            "POSITION": 0,
            "TEXCOORD_0": 2
          },
          "indices": 3,
          "material": 0,
          "mode": 4
        }
      ]
    },
    {
      "name": "Object_1",
      "primitives": [
        {
          "attributes": {
            "NORMAL": 5,
            "POSITION": 4,
            "TEXCOORD_0": 6
          },
          "indices": 7,
          "material": 1,
          "mode": 4
        }
      ]
    },
    {
      "name": "Object_2",
      "primitives": [
        {
          "attributes": {
            "NORMAL": 9,
            "POSITION": 8,
            "TEXCOORD_0": 10
          },
          "indices": 11,
          "material": 2,
          "mode": 4
        }
      ]
    }
  ],
  "nodes": [
    {
      "children": [
        1
      ],
      "matrix": [
        2.220446049250313e-16,
        -4.440892098500626e-16,
        1.0,
        0.0,
        0.0,
        -1.0,
        -4.440892098500626e-16,
        0.0,
        1.0,
        4.930380657631324e-32,
        -2.220446049250313e-16,
        0.0,
        0.0,
        0.0,
        0.0,
        1.0
      ],
      "name": "Sketchfab_model"
    },
    {
      "children": [
        2,
        3,
        4
      ],
      "name": "Cokodoraout.obj.cleaner.materialmerger.gles"
    },
    {
      "mesh": 0,
      "name": "Object_2"
    },
    {
      "mesh": 1,
      "name": "Object_3"
    },
    {
      "mesh": 2,
      "name": "Object_4"
    }
  ],
  "samplers": [
    {
      "magFilter": 9729,
      "minFilter": 9987,
      "wrapS": 10497,
      "wrapT": 10497
    }
  ],
  "scene": 0,
  "scenes": [
    {
      "name": "Sketchfab_Scene",
      "nodes": [
        0
      ]
    }
  ],
  "textures": [
    {
      "sampler": 0,
      "source": 0
    },
    {
      "sampler": 0,
      "source": 1
    },
    {
      "sampler": 0,
      "source": 2
    }
  ]
}
