{
  "accessors": [
    {
      "bufferView": 2,
      "componentType": 5126,
      "count": 696,
      "max": [
        1.0459398031234741,
        1.471020221710205,
        0.5356578230857849
      ],
      "min": [
        -1.0459399223327637,
        -0.033592864871025085,
        -0.2783171534538269
      ],
      "type": "VEC3"
    },
    {
      "bufferView": 2,
      "byteOffset": 8352,
      "componentType": 5126,
      "count": 696,
      "max": [
        0.9999982118606567,
        0.9994249939918518,
        1.0000731945037842
      ],
      "min": [
        -0.9999982714653015,
        -0.9999972581863403,
        -0.9960912466049194
      ],
      "type": "VEC3"
    },
    {
      "bufferView": 1,
      "componentType": 5126,
      "count": 696,
      "max": [
        0.9837589859962463,
        0.9890379905700684
      ],
      "min": [
        0.011034799739718437,
        0.012756000272929668
      ],
      "type": "VEC2"
    },
    {
      "bufferView": 0,
      "componentType": 5125,
      "count": 2781,
      "type": "SCALAR"
    },
    {
      "bufferView": 2,
      "byteOffset": 16704,
      "componentType": 5126,
      "count": 8,
      "max": [
        0.29133570194244385,
        1.422426700592041,
        0.4755585789680481
      ],
      "min": [
        -0.2913362979888916,
        1.257834553718567,
        0.27548748254776
      ],
      "type": "VEC3"
    },
    {
      "bufferView": 2,
      "byteOffset": 16800,
      "componentType": 5126,
      "count": 8,
      "max": [
        0.4674832224845886,
        0.9263654947280884,
        0.8046292066574097
      ],
      "min": [
        -0.4674842357635498,
        0.5023738145828247,
        0.33812808990478516
      ],
      "type": "VEC3"
    },
    {
      "bufferView": 1,
      "byteOffset": 5568,
      "componentType": 5126,
      "count": 8,
      "max": [
        1.2191100120544434,
        0.9890360236167908
      ],
      "min": [
        1.0167399644851685,
        0.5117419958114624
      ],
      "type": "VEC2"
    },
    {
      "bufferView": 0,
      "byteOffset": 11124,
      "componentType": 5125,
      "count": 12,
      "type": "SCALAR"
    },
    {
      "bufferView": 2,
      "byteOffset": 16896,
      "componentType": 5126,
      "count": 8,
      "max": [
        0.29133570194244385,
        1.422426700592041,
        0.4755585789680481
      ],
      "min": [
        -0.2913362979888916,
        1.257834553718567,
        0.27548748254776
      ],
      "type": "VEC3"
    },
    {
      "bufferView": 2,
      "byteOffset": 16992,
      "componentType": 5126,
      "count": 8,
      "max": [
        0.4674832224845886,
        0.9263654947280884,
        0.8046292066574097
      ],
      "min": [
        -0.4674842357635498,
        0.5023738145828247,
        0.33812808990478516
      ],
      "type": "VEC3"
    },
    {
      "bufferView": 1,
      "byteOffset": 5632,
      "componentType": 5126,
      "count": 8,
      "max": [
        1.2191100120544434,
        0.9890360236167908
      ],
      "min": [
        1.0167399644851685,
        0.5117419958114624
      ],
      "type": "VEC2"
    },
    {
      "bufferView": 0,
      "byteOffset": 11172,
      "componentType": 5125,
      "count": 12,
      "type": "SCALAR"
    },
    {
      "bufferView": 2,
      "byteOffset": 17088,
      "componentType": 5126,
      "count": 696,
      "max": [
        1.0459398031234741,
        1.471020221710205,
        0.5356578230857849
      ],
      "min": [
        -1.0459399223327637,
        -0.033592864871025085,
        -0.2783171534538269
      ],
      "type": "VEC3"
    },
    {
      "bufferView": 2,
      "byteOffset": 25440,
      "componentType": 5126,
      "count": 696,
      "max": [
        0.9999982118606567,
        0.9994249939918518,
        1.0000731945037842
      ],
      "min": [
        -0.9999982714653015,
        -0.9999972581863403,
        -0.9960912466049194
      ],
      "type": "VEC3"
    },
    {
      "bufferView": 1,
      "byteOffset": 5696,
      "componentType": 5126,
      "count": 696,
      "max": [
        0.9837589859962463,
        0.9890379905700684
      ],
      "min": [
        0.011034799739718437,
        0.012756000272929668
      ],
      "type": "VEC2"
    },
    {
      "bufferView": 0,
      "byteOffset": 11220,
      "componentType": 5125,
      "count": 2781,
      "type": "SCALAR"
    }
  ],
  "asset": {
    "extras": {
      "author": "nguyenlouis32 (https://sketchfab.com/nguyenlouis32)",
      "license": "CC-BY-4.0 (http://creativecommons.org/licenses/by/4.0/)",
      "source": "https://sketchfab.com/3d-models/carnivine-9c203ae1c82b4069ae42f3f0d0d85207",
      "title": "Carnivine"
    },
    "generator": "Sketchfab-13.42.0",
    "version": "2.0"
  },
  "bufferViews": [
    {
      "buffer": 0,
      "byteLength": 22344,
      "name": "floatBufferViews",
      "target": 34963
    },
    {
      "buffer": 0,
      "byteLength": 11264,
      "byteOffset": 22344,
      "byteStride": 8,
      "name": "floatBufferViews",
      "target": 34962
    },
    {
      "buffer": 0,
      "byteLength": 33792,
      "byteOffset": 33608,
      "byteStride": 12,
      "name": "floatBufferViews",
      "target": 34962
    }
  ],
  "buffers": [
    {
      "byteLength": 67400,
      "uri": "scene.bin"
    }
  ],
  "images": [
    {
      "uri": "textures/body_mat_baseColor.png"
    },
    {
      "uri": "textures/eye_mat_baseColor.png"
    }
  ],
  "materials": [
    {
      "doubleSided": true,
      "name": "body_mat",
      "pbrMetallicRoughness": {
        "baseColorTexture": {
          "index": 0
        },
        "metallicFactor": 0.0,
        "roughnessFactor": 0.6
      }
    },
    {
      "doubleSided": true,
      "name": "eye_mat",
      "pbrMetallicRoughness": {
        "baseColorTexture": {
          "index": 1
        },
        "metallicFactor": 0.0,
        "roughnessFactor": 0.6
      }
    }
  ],
  "meshes": [
    {
      "name": "Object_0",
      "primitives": [
        {
          "attributes": {
            "NORMAL": 1,
            "POSITION": 0,
            "TEXCOORD_0": 2
          },
          "indices": 3,
          "material": 0,
          "mode": 4
        }
      ]
    },
    {
      "name": "Object_1",
      "primitives": [
        {
          "attributes": {
            "NORMAL": 5,
            "POSITION": 4,
            "TEXCOORD_0": 6
          },
          "indices": 7,
          "material": 1,
          "mode": 4
        }
      ]
    },
    {
      "name": "Object_2",
      "primitives": [
        {
          "attributes": {
            "NORMAL": 9,
            "POSITION": 8,
            "TEXCOORD_0": 10
          },
          "indices": 11,
          "material": 1,
          "mode": 4
        }
      ]
    },
    {
      "name": "Object_3",
      "primitives": [
        {
          "attributes": {
            "NORMAL": 13,
            "POSITION": 12,
            "TEXCOORD_0": 14
          },
          "indices": 15,
          "material": 0,
          "mode": 4
        }
      ]
    }
  ],
  "nodes": [
    {
      "children": [
        1
      ],
      "matrix": [
        1.0,
        0.0,
        0.0,
        0.0,
        0.0,
        2.220446049250313e-16,
        -1.0,
        0.0,
        0.0,
        1.0,
        2.220446049250313e-16,
        0.0,
        0.0,
        0.0,
        0.0,
        1.0
      ],
      "name": "Sketchfab_model"
    },
    {
      "children": [
        2
      ],
      "matrix": [
        1.0,
        0.0,
        0.0,
        0.0,
        0.0,
        -4.371139006309477e-08,
        0.999999999999999,
        0.0,
        0.0,
        -0.999999999999999,
        -4.371139006309477e-08,
        0.0,
        0.0,
        0.0,
        0.0,
        1.0
      ],
      "name": "Collada visual scene group"
    },
    {
      "children": [
        3,
        4,
        5,
        6
      ],
      "name": "Object_2"
    },
    {
      "mesh": 0,
      "name": "Object_3"
    },
    {
      "mesh": 1,
      "name": "Object_4"
    },
    {
      "mesh": 2,
      "name": "Object_5"
    },
    {
      "mesh": 3,
      "name": "Object_6"
    }
  ],
  "samplers": [
    {
      "magFilter": 9729,
      "minFilter": 9987,
      "wrapS": 10497,
      "wrapT": 10497
    }
  ],
  "scene": 0,
  "scenes": [
    {
      "name": "Sketchfab_Scene",
      "nodes": [
        0
      ]
    }
  ],
  "textures": [
    {
      "sampler": 0,
      "source": 0
    },
    {
      "sampler": 0,
      "source": 1
    }
  ]
}
